<?xml version="1.0" standalone="no"?>
<!DOCTYPE svg PUBLIC "-//W3C//DTD SVG 20010904//EN"
 "http://www.w3.org/TR/2001/REC-SVG-20010904/DTD/svg10.dtd">
<svg version="1.0" xmlns="http://www.w3.org/2000/svg"
 width="274.000000pt" height="184.000000pt" viewBox="0 0 274.000000 184.000000"
 preserveAspectRatio="xMidYMid meet">
<metadata>
Created by potrace 1.15, written by Peter Selinger 2001-2017
</metadata>
<g transform="translate(0.000000,184.000000) scale(0.100000,-0.100000)"
fill="#000000" stroke="none">
<path d="M883 1723 c-46 -2 -83 -8 -83 -13 0 -6 -12 -11 -27 -12 -16 -1 4 -4
42 -8 67 -6 66 -7 -37 -8 l-108 -2 -1 -122 c-1 -68 -4 -111 -6 -95 -5 31 -22
27 -25 -6 -1 -12 -5 34 -8 103 -4 85 -7 15 -8 -216 -2 -304 -4 -343 -18 -348
-22 -8 -185 -9 -206 -1 -16 6 -17 -13 -12 -281 2 -158 5 -289 7 -290 1 -1 16
-4 32 -6 25 -2 31 1 33 20 3 21 32 33 32 13 0 -5 8 -12 18 -14 13 -4 11 -5 -5
-6 -13 0 -23 -6 -23 -12 0 -11 112 -5 132 7 4 3 9 98 10 212 1 114 3 184 5
155 3 -31 10 -57 20 -65 13 -10 89 -13 362 -13 l346 0 0 -60 c0 -55 -2 -60
-22 -63 -13 -2 -23 -8 -23 -14 0 -7 -4 -7 -13 0 -9 8 -28 7 -66 -1 -55 -12
-84 -38 -65 -57 47 -47 591 -45 621 3 12 20 -44 55 -99 62 -113 13 -107 9
-104 73 l1 57 350 3 c307 2 351 4 367 19 17 15 18 45 18 485 0 455 -1 469 -20
488 -20 20 -32 20 -677 18 -362 -1 -695 -4 -740 -5z m477 -298 c0 -19 9 -19
34 0 28 21 154 21 162 0 4 -9 16 -14 28 -13 30 3 137 -32 131 -43 -4 -5 4 -9
16 -9 12 0 19 -3 15 -7 -4 -5 -13 -8 -19 -8 -5 0 -12 -5 -14 -12 -3 -9 4 -10
29 -2 18 5 44 8 58 8 17 -1 19 -3 8 -6 -10 -2 -18 -11 -18 -19 0 -8 -4 -14
-10 -14 -6 0 -10 -27 -10 -60 l0 -60 35 0 c33 0 35 -2 35 -35 0 -34 -1 -35
-42 -37 l-43 -1 43 -4 c23 -2 42 -8 42 -14 0 -5 -19 -9 -42 -10 -33 0 -38 -2
-23 -9 l20 -9 -20 -1 -20 -1 20 -9 c11 -5 14 -9 6 -9 -17 -1 -76 -51 -76 -65
0 -6 -20 -14 -45 -17 -25 -3 -58 -11 -73 -17 -62 -26 -268 -11 -352 25 -48 20
-115 79 -115 100 0 7 -11 19 -25 25 -14 6 -25 15 -25 20 0 4 -7 8 -16 8 -12 0
-14 10 -12 48 2 26 8 46 13 45 11 -2 46 58 39 68 -2 4 2 12 9 17 10 9 14 3 15
-26 4 -48 12 -55 12 -9 0 19 3 43 7 53 4 12 3 15 -5 10 -8 -4 -10 -2 -6 8 3 8
17 17 32 21 15 4 34 12 42 19 8 7 38 19 65 26 28 8 54 19 58 27 11 18 37 17
37 -2z"/>
<path d="M2367 1712 c-15 -17 -17 -73 -17 -599 0 -551 1 -581 18 -597 16 -13
40 -16 146 -15 118 1 127 3 139 23 18 31 15 1169 -3 1191 -10 12 -37 15 -140
15 -110 0 -129 -2 -143 -18z"/>
<path d="M98 766 c4 -154 2 -190 -9 -197 -8 -5 -9 -9 -3 -9 7 0 10 -32 10 -91
-1 -89 0 -92 24 -101 26 -10 180 -5 199 6 8 5 11 97 11 294 l0 287 -119 0
-118 0 5 -189z"/>
<path d="M1530 414 c-71 -23 -100 -38 -100 -50 0 -8 -4 -14 -10 -14 -5 0 -10
7 -10 15 0 9 -9 15 -25 15 -16 0 -25 -6 -25 -15 0 -8 -4 -15 -9 -15 -5 0 -11
7 -15 15 -7 20 -36 19 -51 -2 -13 -17 -14 -17 -32 0 -23 20 -59 23 -67 5 -5
-10 -7 -10 -12 0 -3 6 -16 12 -29 12 -13 0 -26 -6 -29 -12 -5 -10 -7 -10 -12
0 -7 16 -51 16 -58 0 -5 -10 -7 -10 -12 0 -7 14 -50 16 -59 2 -8 -13 -45 -13
-45 0 0 6 -11 10 -25 10 -14 0 -25 -4 -25 -9 0 -5 -7 -11 -14 -14 -10 -4 -13
-1 -9 9 7 19 -34 19 -53 -1 -9 -8 -21 -15 -27 -14 -9 0 -8 2 1 6 21 8 13 23
-12 23 -13 0 -29 -7 -36 -15 -7 -8 -18 -15 -24 -14 -7 0 -6 2 2 6 6 2 12 9 12
14 0 12 -47 12 -55 -1 -3 -6 -15 -10 -26 -10 -10 0 -19 5 -19 10 0 6 -12 10
-27 9 -38 -1 -126 -116 -121 -157 3 -24 9 -28 48 -34 63 -9 1667 -9 1710 0 29
6 36 13 38 36 5 39 -74 156 -105 156 -12 0 -24 -6 -27 -12 -5 -10 -7 -10 -12
0 -3 6 -16 12 -29 12 -13 0 -26 -6 -29 -12 -5 -10 -7 -10 -12 0 -8 16 -50 16
-57 -1 -4 -10 -33 -12 -123 -10 -87 3 -120 0 -126 -9 -4 -8 -8 -8 -8 -2 0 7
-33 11 -92 11 -59 0 -94 5 -96 12 -5 16 -42 13 -48 -4 -9 -22 -24 -19 -24 5 0
30 66 43 197 38 62 -2 105 0 95 4 -19 8 -219 9 -242 2z"/>
<path d="M2485 311 c-23 -4 -60 -17 -84 -29 -24 -13 -51 -21 -60 -18 -12 5
-11 2 3 -9 10 -8 22 -13 25 -10 4 2 7 -8 6 -22 0 -22 10 -31 64 -60 59 -30 71
-33 155 -33 111 0 121 5 113 56 -15 92 -109 145 -222 125z"/>
</g>
</svg>
