<?xml version="1.0" encoding="iso-8859-1"?>
<!-- Generator: Adobe Illustrator 19.0.0, SVG Export Plug-In . SVG Version: 6.00 Build 0)  -->
<svg version="1.1" id="Capa_1" xmlns="http://www.w3.org/2000/svg" xmlns:xlink="http://www.w3.org/1999/xlink" x="0px" y="0px"
	 viewBox="0 0 512 512" style="enable-background:new 0 0 512 512;" xml:space="preserve">
<g>
	<g>
		<path d="M256,0C159.717,0,81.385,78.332,81.385,174.615c0,119.932,156.001,322.927,162.642,331.51
			C246.894,509.83,251.315,512,256,512c4.685,0,9.106-2.169,11.973-5.875c6.641-8.582,162.642-211.574,162.642-331.51
			C430.616,78.332,352.284,0,256,0z M255.998,471.53c-36.582-50.079-144.335-205.376-144.335-296.914
			c0-79.589,64.749-144.338,144.337-144.338s144.338,64.749,144.338,144.337C400.338,266.094,292.581,421.435,255.998,471.53z"/>
	</g>
</g>
<g>
	<g>
		<path d="M256,65.778c-60.013,0-108.836,48.824-108.836,108.836c0,60.013,48.824,108.836,108.836,108.836
			c60.014,0,108.837-48.824,108.837-108.836C364.837,114.602,316.014,65.778,256,65.778z M256,253.175
			c-43.317,0-78.559-35.241-78.559-78.559S212.683,96.057,256,96.057c43.318,0,78.56,35.241,78.56,78.559
			S299.318,253.175,256,253.175z"/>
	</g>
</g>
<g>
	<g>
		<path d="M256,163.07c-8.202,0.367-15.139,6.652-15.139,15.139c0,11.932,0,23.864,0,35.796c0,7.919,6.963,15.505,15.139,15.139
			c8.202-0.367,15.139-6.652,15.139-15.139c0-11.932,0-23.864,0-35.796C271.139,170.29,264.176,162.704,256,163.07z"/>
	</g>
</g>
<g>
	<g>
		<path d="M256,120.087c-7.919,0-15.505,6.963-15.139,15.139c0.367,8.202,6.652,15.139,15.139,15.139
			c7.919,0,15.505-6.963,15.139-15.139C270.771,127.023,264.487,120.087,256,120.087z"/>
	</g>
</g>
<g>
</g>
<g>
</g>
<g>
</g>
<g>
</g>
<g>
</g>
<g>
</g>
<g>
</g>
<g>
</g>
<g>
</g>
<g>
</g>
<g>
</g>
<g>
</g>
<g>
</g>
<g>
</g>
<g>
</g>
</svg>
